<svg width="200" height="50" viewBox="0 0 200 50" fill="none" xmlns="http://www.w3.org/2000/svg">
<path d="M16.4702 25V32.4405L17.2466 33.0357H30.7045M38.7275 33.0357L31.8691 26.3393V33.0357M38.7275 33.0357H31.8691M38.7275 33.0357L39.1157 32.6488M40.6686 25V25.744M31.8691 33.0357H30.7045M30.7045 33.0357V25M39.1157 32.6488L40.6686 31.1012V25.744M39.1157 32.6488L32.128 25.744H40.6686" stroke="#328FA6"/>
<line x1="30.7045" y1="30.0178" x2="16.4702" y2="30.0178" stroke="#328FA6" stroke-width="2" stroke-dasharray="5 2"/>
<path d="M16.4702 25V17.5595L17.2466 16.9643H30.7045M38.7275 16.9643L31.8691 23.6607V16.9643M38.7275 16.9643H31.8691M38.7275 16.9643L39.1157 17.3512M40.6686 25V24.256M31.8691 16.9643H30.7045M30.7045 16.9643V25M39.1157 17.3512L40.6686 18.8988V24.256M39.1157 17.3512L32.128 24.256H40.6686" stroke="#328FA6"/>
<line y1="-1" x2="14.2344" y2="-1" transform="matrix(-1 0 0 1 30.7045 20.9822)" stroke="#328FA6" stroke-width="2" stroke-dasharray="5 2"/>
<rect x="170.701" y="21.9286" width="3.39971" height="5.84524" rx="0.5" stroke="#328FA6"/>
<rect x="136.798" y="22.0774" width="9.61107" height="5.84524" rx="0.5" stroke="#328FA6"/>
<line x1="138.35" y1="21.5774" x2="138.35" y2="28.125" stroke="#328FA6"/>
<line x1="140.162" y1="21.5774" x2="140.162" y2="28.125" stroke="#328FA6"/>
<line x1="141.974" y1="21.5774" x2="141.974" y2="28.125" stroke="#328FA6"/>
<line x1="143.785" y1="21.5774" x2="143.785" y2="28.125" stroke="#328FA6"/>
<line x1="145.597" y1="21.5774" x2="145.597" y2="28.125" stroke="#328FA6"/>
<line x1="136.298" y1="23.1606" x2="146.65" y2="23.1606" stroke="#328FA6"/>
<line x1="136.298" y1="26.137" x2="146.65" y2="26.137" stroke="#328FA6"/>
<path d="M93.3534 30.2083C93.3534 30.6575 93.0504 30.8988 92.8181 30.8988C92.5858 30.8988 92.2829 30.6575 92.2829 30.2083C92.2829 29.7591 92.5858 29.5178 92.8181 29.5178C93.0504 29.5178 93.3534 29.7591 93.3534 30.2083Z" stroke="#328FA6"/>
<path d="M96.7178 30.2083C96.7178 30.6575 96.4149 30.8988 96.1826 30.8988C95.9503 30.8988 95.6474 30.6575 95.6474 30.2083C95.6474 29.7591 95.9503 29.5178 96.1826 29.5178C96.4149 29.5178 96.7178 29.7591 96.7178 30.2083Z" stroke="#328FA6"/>
<path d="M133.58 32.8869L133.882 33.2853L134.08 33.1352V32.8869H133.58ZM133.58 17.1131H134.08V16.8648L133.882 16.7147L133.58 17.1131ZM156.561 21.8378L156.098 22.0268L156.098 22.0268L156.561 21.8378ZM164.249 22.2098H164.749V21.7334L164.273 21.7104L164.249 22.2098ZM164.249 22.7679L164.287 23.2664L164.749 23.2306V22.7679H164.249ZM164.249 27.7902L164.273 28.2896L164.749 28.2666V27.7902H164.249ZM164.249 27.0461H164.749V26.5834L164.287 26.5476L164.249 27.0461ZM104.206 25.5952L104.705 25.5785C104.7 25.4056 104.605 25.248 104.455 25.1618L104.206 25.5952ZM104.464 33.3333L103.965 33.35C103.974 33.6195 104.195 33.8333 104.464 33.8333V33.3333ZM106.017 33.3333V33.8333C106.274 33.8333 106.489 33.6388 106.515 33.3833L106.017 33.3333ZM106.794 25.5952L106.656 25.1147C106.459 25.1712 106.317 25.3418 106.296 25.5453L106.794 25.5952ZM104.206 24.4048L104.455 24.8382C104.605 24.752 104.7 24.5944 104.705 24.4215L104.206 24.4048ZM104.464 16.6667V16.1667C104.195 16.1667 103.974 16.3805 103.965 16.65L104.464 16.6667ZM106.017 16.6667L106.515 16.6167C106.489 16.3612 106.274 16.1667 106.017 16.1667V16.6667ZM106.794 24.4048L106.296 24.4547C106.317 24.6582 106.459 24.8288 106.656 24.8853L106.794 24.4048ZM110.546 30.8036L110.988 30.5697C110.902 30.406 110.732 30.3036 110.546 30.3036V30.8036ZM115.464 31.6964V31.1964C115.261 31.1964 115.078 31.3192 115.001 31.5071L115.464 31.6964ZM121.028 31.6964V32.1964C121.163 32.1964 121.291 32.1422 121.385 32.0461L121.028 31.6964ZM123.357 29.3155L123.715 29.6651C123.806 29.5717 123.857 29.4462 123.857 29.3155H123.357ZM110.546 19.1964V19.6964C110.732 19.6964 110.902 19.594 110.988 19.4303L110.546 19.1964ZM115.464 18.3036L115.001 18.4929C115.078 18.6808 115.261 18.8036 115.464 18.8036V18.3036ZM121.028 18.3036L121.385 17.9539C121.291 17.8578 121.163 17.8036 121.028 17.8036V18.3036ZM123.357 20.6845H123.857C123.857 20.5538 123.806 20.4283 123.715 20.3349L123.357 20.6845ZM88.6772 32.6551H88.1772V33.0867L88.6042 33.1497L88.6772 32.6551ZM100.324 34.375L100.25 34.8696L100.824 34.9543V34.375H100.324ZM100.324 23.6732H100.824V23.1732H100.324V23.6732ZM88.6772 16.2202V15.7202H88.1772V16.2202H88.6772ZM95.9561 16.2202L96.4346 16.0749L96.3268 15.7202H95.9561V16.2202ZM46.8799 28.125H46.3799V28.5231L46.7679 28.6123L46.8799 28.125ZM62.1495 27.8274L62.0624 27.335L61.8654 27.3699L61.7468 27.5311L62.1495 27.8274ZM46.8799 21.875L46.7679 21.3877L46.3799 21.4769V21.875H46.8799ZM62.1495 22.1726L61.7468 22.4689L61.8654 22.6301L62.0624 22.665L62.1495 22.1726ZM44.1625 35.4167H43.6625V35.6894L43.8918 35.837L44.1625 35.4167ZM44.1625 14.5833L43.8918 14.163L43.6625 14.3106V14.5833H44.1625ZM45.7153 34.6726H45.2153V34.954L45.4559 35.1001L45.7153 34.6726ZM45.7153 15.3274L45.4559 14.8999L45.2153 15.046V15.3274H45.7153ZM10 33.9286H9.5V34.3082L9.86573 34.4102L10 33.9286ZM10 16.0714L9.86573 15.5898L9.5 15.6918V16.0714H10ZM168.148 33.3333L168.275 33.817L168.148 33.3333ZM71.9842 35.7143L71.6606 35.3331L71.4842 35.4829V35.7143H71.9842ZM77.4191 31.1012L77.5462 30.6176L77.2942 30.5514L77.0956 30.72L77.4191 31.1012ZM84.4069 31.6964L84.5245 32.1824L84.5245 32.1824L84.4069 31.6964ZM71.9842 14.2857H71.4842V14.5171L71.6606 14.6669L71.9842 14.2857ZM77.4191 18.8988L77.0956 19.28L77.2942 19.4486L77.5462 19.3824L77.4191 18.8988ZM84.4069 18.3036L84.2892 18.7895L84.2892 18.7895L84.4069 18.3036ZM82.8541 18.1403L82.8493 18.6403L82.8493 18.6403L82.8541 18.1403ZM188.428 24.1774L188.652 23.7306L188.428 24.1774ZM188.428 25.8226L188.203 25.3757L188.428 25.8226ZM127.8 37.8984L133.882 33.2853L133.278 32.4885L127.196 37.1016L127.8 37.8984ZM127.196 12.8984L133.278 17.5115L133.882 16.7147L127.8 12.1016L127.196 12.8984ZM134.08 32.8869V17.1131H133.08V32.8869H134.08ZM154.289 30.4524C153.203 30.4524 151.934 29.7275 150.909 28.614C149.886 27.5042 149.22 26.1315 149.22 25H148.22C148.22 26.4727 149.054 28.0762 150.173 29.2915C151.289 30.5031 152.805 31.4524 154.289 31.4524V30.4524ZM154.289 18.5476C152.805 18.5476 151.289 19.4969 150.173 20.7085C149.054 21.9238 148.22 23.5273 148.22 25H149.22C149.22 23.8685 149.886 22.4958 150.909 21.386C151.934 20.2725 153.203 19.5476 154.289 19.5476V18.5476ZM157.024 21.6488C156.704 20.8662 156.304 20.1248 155.871 19.5693C155.655 19.2918 155.419 19.0457 155.167 18.8651C154.918 18.6864 154.619 18.5476 154.289 18.5476V19.5476C154.336 19.5476 154.433 19.5689 154.584 19.6775C154.733 19.7843 154.902 19.9527 155.082 20.1841C155.443 20.6462 155.801 21.3 156.098 22.0268L157.024 21.6488ZM156.537 22.3372L164.225 22.7092L164.273 21.7104L156.585 21.3384L156.537 22.3372ZM163.749 22.2098V22.7679H164.749V22.2098H163.749ZM157.788 25C157.788 24.4445 157.692 23.8242 157.537 23.2041L156.567 23.4477C156.709 24.0153 156.788 24.5506 156.788 25H157.788ZM157.537 23.2041C157.406 22.6834 157.23 22.1534 157.024 21.6488L156.098 22.0268C156.287 22.4903 156.448 22.9755 156.567 23.4477L157.537 23.2041ZM164.21 22.2694L157.013 22.8274L157.09 23.8244L164.287 23.2664L164.21 22.2694ZM156.788 25C156.788 25.4026 156.725 25.875 156.609 26.3791L157.583 26.6039C157.711 26.0495 157.788 25.499 157.788 25H156.788ZM156.609 26.3791C156.487 26.9047 156.311 27.4524 156.098 27.9732L157.024 28.3512C157.255 27.7847 157.449 27.1859 157.583 26.6039L156.609 26.3791ZM156.098 27.9732C155.801 28.7 155.443 29.3538 155.082 29.8159C154.902 30.0473 154.733 30.2157 154.584 30.3225C154.433 30.4311 154.336 30.4524 154.289 30.4524V31.4524C154.619 31.4524 154.918 31.3136 155.167 31.1349C155.419 30.9543 155.655 30.7082 155.871 30.4307C156.304 29.8752 156.704 29.1338 157.024 28.3512L156.098 27.9732ZM156.585 28.6616L164.273 28.2896L164.225 27.2908L156.537 27.6628L156.585 28.6616ZM164.749 27.7902V27.0461H163.749V27.7902H164.749ZM164.287 26.5476L157.134 25.993L157.057 26.99L164.21 27.5446L164.287 26.5476ZM157.134 25.993L157.09 25.9896L157.013 26.9866L157.057 26.99L157.134 25.993ZM103.188 25C103.188 25.336 103.411 25.5867 103.531 25.7052C103.675 25.8485 103.842 25.9627 103.956 26.0287L104.455 25.1618C104.397 25.1286 104.304 25.0642 104.234 24.9942C104.199 24.9597 104.181 24.9356 104.175 24.9248C104.167 24.9121 104.188 24.94 104.188 25H103.188ZM103.706 25.612L103.965 33.35L104.964 33.3166L104.705 25.5785L103.706 25.612ZM104.464 33.8333H106.017V32.8333H104.464V33.8333ZM106.515 33.3833L107.291 25.6452L106.296 25.5453L105.52 33.2834L106.515 33.3833ZM106.932 26.0758C107.079 26.0334 107.28 25.9406 107.453 25.783C107.634 25.6191 107.811 25.3572 107.811 25H106.811C106.811 25.0055 106.811 25.0068 106.809 25.0094C106.807 25.0143 106.799 25.0262 106.781 25.0429C106.763 25.0596 106.739 25.0762 106.712 25.0905C106.685 25.105 106.663 25.1125 106.656 25.1147L106.932 26.0758ZM104.188 25C104.188 25.06 104.167 25.0879 104.175 25.0752C104.181 25.0644 104.199 25.0403 104.234 25.0058C104.304 24.9358 104.397 24.8714 104.455 24.8382L103.956 23.9713C103.842 24.0373 103.675 24.1515 103.531 24.2948C103.411 24.4133 103.188 24.664 103.188 25H104.188ZM104.705 24.4215L104.964 16.6834L103.965 16.65L103.706 24.388L104.705 24.4215ZM104.464 17.1667H106.017V16.1667H104.464V17.1667ZM105.52 16.7166L106.296 24.4547L107.291 24.3548L106.515 16.6167L105.52 16.7166ZM106.656 24.8853C106.663 24.8875 106.685 24.895 106.712 24.9095C106.739 24.9238 106.763 24.9404 106.781 24.9571C106.799 24.9738 106.807 24.9857 106.809 24.9906C106.811 24.9932 106.811 24.9945 106.811 25H107.811C107.811 24.6428 107.634 24.3809 107.453 24.217C107.28 24.0594 107.079 23.9666 106.932 23.9242L106.656 24.8853ZM106.276 31.3036H110.546V30.3036H106.276V31.3036ZM110.546 30.8036C110.104 31.0375 110.104 31.0375 110.105 31.0376C110.105 31.0377 110.105 31.0378 110.105 31.0378C110.105 31.038 110.105 31.0382 110.105 31.0385C110.105 31.0391 110.106 31.0398 110.106 31.0408C110.107 31.0427 110.109 31.0455 110.111 31.049C110.114 31.056 110.12 31.0662 110.127 31.0794C110.141 31.1057 110.162 31.1437 110.188 31.1919C110.241 31.2882 110.318 31.4251 110.413 31.5891C110.603 31.9164 110.868 32.3552 111.168 32.7962C111.466 33.2337 111.809 33.6898 112.155 34.0419C112.328 34.2178 112.514 34.3806 112.707 34.5022C112.895 34.6206 113.131 34.7262 113.393 34.7262V33.7262C113.397 33.7262 113.349 33.7249 113.24 33.656C113.136 33.5905 113.011 33.4859 112.868 33.3409C112.584 33.0512 112.279 32.6517 111.995 32.2336C111.713 31.8189 111.461 31.4021 111.278 31.0876C111.187 30.9307 111.114 30.8002 111.064 30.7094C111.039 30.664 111.02 30.6285 111.007 30.6046C111.001 30.5927 110.996 30.5837 110.993 30.5778C110.991 30.5749 110.99 30.5727 110.989 30.5713C110.989 30.5706 110.989 30.5702 110.988 30.5699C110.988 30.5697 110.988 30.5696 110.988 30.5696C110.988 30.5696 110.988 30.5696 110.988 30.5696C110.988 30.5696 110.988 30.5697 110.546 30.8036ZM113.393 34.7262C113.851 34.7262 114.231 34.4539 114.503 34.1885C114.788 33.9102 115.039 33.5549 115.243 33.2229C115.449 32.887 115.619 32.5542 115.737 32.3071C115.796 32.183 115.843 32.0793 115.875 32.0059C115.891 31.9692 115.904 31.94 115.912 31.9196C115.917 31.9094 115.92 31.9013 115.922 31.8957C115.924 31.8928 115.924 31.8906 115.925 31.8889C115.926 31.8881 115.926 31.8874 115.926 31.8869C115.926 31.8866 115.926 31.8864 115.926 31.8862C115.926 31.8861 115.926 31.886 115.926 31.886C115.926 31.8859 115.926 31.8858 115.464 31.6964C115.001 31.5071 115.001 31.507 115.001 31.5069C115.001 31.5069 115.001 31.5069 115.001 31.5069C115.001 31.5068 115.001 31.5068 115.001 31.5069C115.001 31.507 115.001 31.5072 115.001 31.5076C115 31.5084 115 31.5098 114.999 31.5117C114.997 31.5156 114.995 31.5218 114.991 31.5301C114.984 31.5467 114.974 31.5719 114.959 31.6044C114.931 31.6693 114.889 31.7632 114.835 31.8763C114.726 32.1036 114.573 32.4032 114.391 32.6997C114.206 33.0002 114.005 33.2773 113.804 33.4734C113.59 33.6822 113.453 33.7262 113.393 33.7262V34.7262ZM115.464 32.1964H121.028V31.1964H115.464V32.1964ZM121.385 32.0461L123.715 29.6651L123 28.9658L120.671 31.3468L121.385 32.0461ZM106.276 19.6964H110.546V18.6964H106.276V19.6964ZM110.546 19.1964C110.988 19.4303 110.988 19.4304 110.988 19.4304C110.988 19.4304 110.988 19.4304 110.988 19.4304C110.988 19.4304 110.988 19.4303 110.988 19.4301C110.989 19.4298 110.989 19.4294 110.989 19.4287C110.99 19.4273 110.991 19.4251 110.993 19.4222C110.996 19.4163 111.001 19.4073 111.007 19.3954C111.02 19.3715 111.039 19.336 111.064 19.2906C111.114 19.1998 111.187 19.0693 111.278 18.9124C111.461 18.5979 111.713 18.1811 111.995 17.7664C112.279 17.3483 112.584 16.9488 112.868 16.6591C113.011 16.5141 113.136 16.4095 113.24 16.344C113.349 16.2751 113.397 16.2738 113.393 16.2738V15.2738C113.131 15.2738 112.895 15.3794 112.707 15.4978C112.514 15.6194 112.328 15.7822 112.155 15.9581C111.809 16.3102 111.466 16.7663 111.168 17.2038C110.868 17.6448 110.603 18.0836 110.413 18.4109C110.318 18.5749 110.241 18.7118 110.188 18.8081C110.162 18.8563 110.141 18.8943 110.127 18.9206C110.12 18.9338 110.114 18.944 110.111 18.951C110.109 18.9545 110.107 18.9573 110.106 18.9592C110.106 18.9602 110.105 18.9609 110.105 18.9615C110.105 18.9618 110.105 18.962 110.105 18.9622C110.105 18.9622 110.105 18.9623 110.105 18.9624C110.104 18.9625 110.104 18.9625 110.546 19.1964ZM113.393 16.2738C113.453 16.2738 113.59 16.3178 113.804 16.5266C114.005 16.7227 114.206 16.9998 114.391 17.3003C114.573 17.5968 114.726 17.8964 114.835 18.1237C114.889 18.2368 114.931 18.3307 114.959 18.3956C114.974 18.4281 114.984 18.4533 114.991 18.4699C114.995 18.4782 114.997 18.4844 114.999 18.4883C115 18.4902 115 18.4916 115.001 18.4924C115.001 18.4928 115.001 18.493 115.001 18.4931C115.001 18.4932 115.001 18.4932 115.001 18.4931C115.001 18.4931 115.001 18.4931 115.001 18.4931C115.001 18.493 115.001 18.4929 115.464 18.3036C115.926 18.1142 115.926 18.1141 115.926 18.114C115.926 18.114 115.926 18.1139 115.926 18.1138C115.926 18.1136 115.926 18.1134 115.926 18.1131C115.926 18.1126 115.926 18.1119 115.925 18.1111C115.924 18.1094 115.924 18.1072 115.922 18.1043C115.92 18.0987 115.917 18.0906 115.912 18.0804C115.904 18.06 115.891 18.0308 115.875 17.9941C115.843 17.9207 115.796 17.817 115.737 17.6929C115.619 17.4458 115.449 17.113 115.243 16.7771C115.039 16.4451 114.788 16.0898 114.503 15.8115C114.231 15.5461 113.851 15.2738 113.393 15.2738V16.2738ZM115.464 18.8036H121.028V17.8036H115.464V18.8036ZM120.671 18.6532L123 21.0342L123.715 20.3349L121.385 17.9539L120.671 18.6532ZM123.857 29.3155V20.6845H122.857V29.3155H123.857ZM88.1772 23.6732V32.6551H89.1772V23.6732H88.1772ZM88.6042 33.1497L100.25 34.8696L100.397 33.8804L88.7503 32.1604L88.6042 33.1497ZM100.824 34.375V23.6732H99.8235V34.375H100.824ZM89.1772 23.6732V16.2202H88.1772V23.6732H89.1772ZM88.6772 16.7202H95.9561V15.7202H88.6772V16.7202ZM100.324 23.1732H98.2207V24.1732H100.324V23.1732ZM98.2207 23.1732H88.6772V24.1732H98.2207V23.1732ZM95.4777 16.3656L97.7423 23.8186L98.6991 23.5279L96.4346 16.0749L95.4777 16.3656ZM46.7679 28.6123C49.1305 29.1557 54.6037 30.2619 57.3616 30.2619V29.2619C54.7363 29.2619 49.3742 28.1856 46.992 27.6377L46.7679 28.6123ZM57.3616 30.2619C60.2106 30.2619 61.9826 28.8979 62.5523 28.1237L61.7468 27.5311C61.3675 28.0465 59.8958 29.2619 57.3616 29.2619V30.2619ZM62.2366 28.3197C63.3276 28.1267 66.5507 27.7321 70.5607 27.7321V26.7321C66.496 26.7321 63.2144 27.1312 62.0624 27.335L62.2366 28.3197ZM70.5607 27.7321C73.0381 27.7321 74.6849 28.0232 76.2251 28.3184C77.7735 28.6152 79.2413 28.9226 81.3012 28.9226V27.9226C79.3496 27.9226 77.9706 27.6348 76.4133 27.3363C74.8478 27.0363 73.1301 26.7321 70.5607 26.7321V27.7321ZM81.3012 28.9226C82.9131 28.9226 83.9353 28.8729 84.5617 28.8084C84.8722 28.7764 85.1017 28.7392 85.2629 28.6973C85.34 28.6773 85.4272 28.6498 85.5058 28.6082C85.5441 28.588 85.6051 28.5516 85.6628 28.4919C85.7194 28.4332 85.8127 28.3087 85.8127 28.125H84.8127C84.8127 27.9537 84.8998 27.8424 84.9431 27.7975C84.9875 27.7515 85.0281 27.7296 85.0382 27.7243C85.0604 27.7126 85.0598 27.7169 85.0116 27.7294C84.9221 27.7526 84.7504 27.7836 84.4592 27.8136C83.8821 27.8731 82.8986 27.9226 81.3012 27.9226V28.9226ZM46.992 22.3623C49.3742 21.8144 54.7363 20.7381 57.3616 20.7381V19.7381C54.6037 19.7381 49.1305 20.8443 46.7679 21.3877L46.992 22.3623ZM57.3616 20.7381C59.8958 20.7381 61.3675 21.9535 61.7468 22.4689L62.5523 21.8763C61.9826 21.1021 60.2106 19.7381 57.3616 19.7381V20.7381ZM62.0624 22.665C63.2144 22.8688 66.496 23.2679 70.5607 23.2679V22.2679C66.5507 22.2679 63.3276 21.8733 62.2366 21.6803L62.0624 22.665ZM70.5607 23.2679C73.1301 23.2679 74.8478 22.9637 76.4133 22.6637C77.9706 22.3652 79.3496 22.0774 81.3012 22.0774V21.0774C79.2413 21.0774 77.7735 21.3848 76.2251 21.6816C74.6849 21.9768 73.0381 22.2679 70.5607 22.2679V23.2679ZM81.3012 22.0774C82.8986 22.0774 83.8821 22.1269 84.4592 22.1864C84.7504 22.2164 84.9221 22.2474 85.0116 22.2706C85.0598 22.2831 85.0604 22.2874 85.0382 22.2757C85.0281 22.2704 84.9875 22.2485 84.9431 22.2025C84.8998 22.1576 84.8127 22.0463 84.8127 21.875H85.8127C85.8127 21.6913 85.7194 21.5668 85.6628 21.5081C85.6051 21.4484 85.5441 21.412 85.5058 21.3918C85.4272 21.3502 85.34 21.3227 85.2629 21.3027C85.1017 21.2608 84.8722 21.2236 84.5617 21.1916C83.9353 21.1271 82.9131 21.0774 81.3012 21.0774V22.0774ZM46.3799 21.875V28.125H47.3799V21.875H46.3799ZM85.8127 28.125V21.875H84.8127V28.125H85.8127ZM43.8918 35.837L47.1268 37.9204L47.6683 37.0796L44.4332 34.9963L43.8918 35.837ZM44.4332 15.0037L47.6683 12.9204L47.1268 12.0796L43.8918 14.163L44.4332 15.0037ZM43.6625 14.5833V35.4167H44.6625V14.5833H43.6625ZM50.6333 37.0726L45.9747 34.2452L45.4559 35.1001L50.1144 37.9274L50.6333 37.0726ZM50.1144 12.0726L45.4559 14.8999L45.9747 15.7548L50.6333 12.9274L50.1144 12.0726ZM46.2153 34.6726V15.3274H45.2153V34.6726H46.2153ZM9.86573 34.4102C14.1841 35.6141 26.8595 38 43.2566 38V37C26.9407 37 14.3565 34.624 10.1343 33.4469L9.86573 34.4102ZM43.2566 38H136.815V37H43.2566V38ZM10.1343 16.5531C14.3565 15.376 26.9407 13 43.2566 13V12C26.8595 12 14.1841 14.3859 9.86573 15.5898L10.1343 16.5531ZM43.2566 13H136.815V12H43.2566V13ZM9.5 16.0714V33.9286H10.5V16.0714H9.5ZM136.815 13C148.595 13 159.34 14.8731 168.021 17.1503L168.275 16.183C159.53 13.8893 148.698 12 136.815 12V13ZM168.021 17.1503C177.866 19.7327 185.165 23.0996 188.203 24.6243L188.652 23.7306C185.57 22.1843 178.206 18.7878 168.275 16.183L168.021 17.1503ZM136.815 38C148.698 38 159.53 36.1107 168.275 33.817L168.021 32.8497C159.34 35.1269 148.595 37 136.815 37V38ZM168.275 33.817C178.206 31.2122 185.57 27.8157 188.652 26.2694L188.203 25.3757C185.165 26.9004 177.866 30.2673 168.021 32.8497L168.275 33.817ZM167.648 16.6667V33.3333H168.648V16.6667H167.648ZM72.4842 37.5V35.7143H71.4842V37.5H72.4842ZM72.3077 36.0955L77.7427 31.4824L77.0956 30.72L71.6606 35.3331L72.3077 36.0955ZM84.5245 32.1824C85.8171 31.8695 86.6918 31.3939 87.2537 30.9562C87.5336 30.7381 87.7372 30.5284 87.8757 30.3518C87.9445 30.264 88.0011 30.1796 88.0432 30.1019C88.0642 30.0634 88.0849 30.0203 88.1018 29.9747C88.1146 29.94 88.142 29.8603 88.142 29.7619H87.142C87.142 29.6821 87.1633 29.6291 87.1636 29.6285C87.1678 29.617 87.1695 29.6154 87.1644 29.6248C87.1545 29.643 87.1312 29.6806 87.0888 29.7347C87.0049 29.8417 86.8607 29.9947 86.6392 30.1673C86.1982 30.5108 85.4553 30.9282 84.2892 31.2105L84.5245 32.1824ZM77.292 31.5848C78.4748 31.8957 80.8768 32.3786 82.8588 32.3597L82.8493 31.3597C80.9949 31.3774 78.6909 30.9185 77.5462 30.6176L77.292 31.5848ZM82.8588 32.3597C83.4508 32.354 84.0238 32.3036 84.5245 32.1824L84.2892 31.2105C83.8886 31.3075 83.3979 31.3545 82.8493 31.3597L82.8588 32.3597ZM82.4642 31.5466L77.9351 37.1869L78.7148 37.8131L83.2439 32.1728L82.4642 31.5466ZM71.4842 12.5V14.2857H72.4842V12.5H71.4842ZM71.6606 14.6669L77.0956 19.28L77.7427 18.5176L72.3077 13.9045L71.6606 14.6669ZM84.2892 18.7895C85.4553 19.0718 86.1982 19.4892 86.6392 19.8327C86.8607 20.0053 87.0049 20.1583 87.0888 20.2653C87.1312 20.3194 87.1545 20.357 87.1644 20.3752C87.1695 20.3846 87.1678 20.383 87.1636 20.3715C87.1633 20.3709 87.142 20.3179 87.142 20.2381H88.142C88.142 20.1397 88.1146 20.06 88.1018 20.0253C88.0849 19.9797 88.0642 19.9366 88.0432 19.8981C88.0011 19.8204 87.9445 19.736 87.8757 19.6482C87.7372 19.4716 87.5336 19.2619 87.2537 19.0438C86.6918 18.6061 85.8171 18.1305 84.5245 17.8176L84.2892 18.7895ZM77.5462 19.3824C78.6909 19.0815 80.9949 18.6226 82.8493 18.6403L82.8588 17.6403C80.8768 17.6214 78.4748 18.1043 77.292 18.4152L77.5462 19.3824ZM82.8493 18.6403C83.3979 18.6455 83.8886 18.6925 84.2892 18.7895L84.5245 17.8176C84.0238 17.6964 83.4508 17.646 82.8588 17.6403L82.8493 18.6403ZM83.2439 17.8272L78.7148 12.1869L77.9351 12.8131L82.4642 18.4534L83.2439 17.8272ZM88.142 29.7619V20.2381H87.142V29.7619H88.142ZM188.203 24.6243C188.532 24.7894 188.532 25.2106 188.203 25.3757L188.652 26.2694C189.716 25.7354 189.716 24.2646 188.652 23.7306L188.203 24.6243Z" fill="#328FA6"/>
</svg>
