<svg width="250" height="50" viewBox="0 0 250 50" fill="none" xmlns="http://www.w3.org/2000/svg">
<path d="M95.6762 6.21704L38.4232 14.2169V17.8395L122.52 6.21704" stroke="#328FA6" stroke-dasharray="5 5"/>
<path d="M27.5179 37.7637L52.6841 33.2355L57.2978 35.0468C67.7138 33.5877 90.0138 30.3978 95.8859 29.311C103.226 27.9526 111.405 26.1413 120.423 24.6319C129.441 23.1224 142.024 21.1602 151.881 19.8017C159.766 18.715 177.256 16.0282 185.016 14.8207" stroke="#328FA6" stroke-dasharray="5 5"/>
<line y1="-1" x2="152.386" y2="-1" transform="matrix(0.990885 -0.134711 0.253846 0.967245 19.1292 30.0658)" stroke="#328FA6" stroke-width="2" stroke-dasharray="10 8"/>
<rect x="0.318382" y="0.293144" width="70.6736" height="0.604194" transform="matrix(0.999604 -0.0281608 0.0543038 0.998524 154.586 23.2303)" stroke="#328FA6" stroke-width="0.604194"/>
<rect x="0.333091" y="0.285009" width="65.9257" height="0.605285" transform="matrix(0.998592 -0.0530485 0.102016 0.994783 159.192 33.9163)" stroke="#328FA6" stroke-width="0.605285"/>
<line y1="-0.5" x2="81.5724" y2="-0.5" transform="matrix(0.997525 -0.070315 0.134833 0.990868 149.154 29.1602)" stroke="#328FA6" stroke-dasharray="5 5"/>
<line y1="-0.5" x2="81.4511" y2="-0.5" transform="matrix(0.999011 -0.0444756 0.0856266 0.996327 149.154 31.5752)" stroke="#328FA6" stroke-dasharray="5 5"/>
<path d="M138.459 42.4429L176.418 39.1222" stroke="#328FA6" stroke-dasharray="5 5"/>
<path d="M126.825 37.0089V38.2076L129.088 40.7825L129.127 41.4928L127.098 42.1143L127.996 43.1798L127.098 44.1121L126.513 43.4017H125.109L124.524 44.1121L123.626 43.1798L124.524 42.1143L122.495 41.4928L122.534 40.7825L124.797 38.2076V37.0089L125.421 36.2542C125.434 35.4995 125.53 33.9901 125.811 33.9901C126.092 33.9901 126.188 35.4995 126.201 36.2542L126.825 37.0089Z" stroke="#328FA6"/>
<path d="M79.8685 37.0089V38.2076L82.1313 40.7825L82.1703 41.4928L80.1416 42.1143L81.0389 43.1798L80.1416 44.1121L79.5564 43.4017H78.1519L77.5667 44.1121L76.6694 43.1798L77.5667 42.1143L75.538 41.4928L75.577 40.7825L77.8398 38.2076V37.0089L78.464 36.2542C78.477 35.4995 78.5732 33.9901 78.8541 33.9901C79.135 33.9901 79.2313 35.4995 79.2443 36.2542L79.8685 37.0089Z" stroke="#328FA6"/>
<path d="M135.315 37.0089V38.2076L137.578 40.7825L137.617 41.4928L135.588 42.1143L136.485 43.1798L135.588 44.1121L135.003 43.4017H133.598L133.013 44.1121L132.116 43.1798L133.013 42.1143L130.984 41.4928L131.023 40.7825L133.286 38.2076V37.0089L133.91 36.2542C133.923 35.4995 134.019 33.9901 134.3 33.9901C134.581 33.9901 134.678 35.4995 134.691 36.2542L135.315 37.0089Z" stroke="#328FA6"/>
<path d="M88.3579 37.0089V38.2076L90.6207 40.7825L90.6597 41.4928L88.631 42.1143L89.5283 43.1798L88.631 44.1121L88.0458 43.4017H86.6413L86.0561 44.1121L85.1588 43.1798L86.0561 42.1143L84.0274 41.4928L84.0664 40.7825L86.3292 38.2076V37.0089L86.9534 36.2542C86.9664 35.4995 87.0626 33.9901 87.3435 33.9901C87.6244 33.9901 87.7207 35.4995 87.7337 36.2542L88.3579 37.0089Z" stroke="#328FA6"/>
<path fill-rule="evenodd" clip-rule="evenodd" d="M144.003 3H144.121H160.898H161.042L161.164 3.07651L164.729 5.3143L176.264 12.5542L179.078 14.3206H184.516V12.7074V12.2074H185.016H192.146H192.326L192.464 12.3213L195.287 14.6432L230.793 18.8523L231.234 18.9046V19.3488V32.6317V33.094L230.773 33.1301L180.775 37.0449L166.41 46.1854L166.286 46.2643L166.139 46.2635L28.5638 45.5397L28.133 45.5375L28.0716 45.1111L27.0848 38.2637H21.0025H20.6058L20.5156 37.8774L20.2336 36.6698L19.6697 34.2548L18.0131 27.1605L18 27.1044V27.0468V25.9902V23.2733V17.9904V17.5356L18.4528 17.4926L37.0843 15.7243V8.33012V8.06432L37.3047 7.91565L40.6601 5.65153L40.7873 5.56573L40.9407 5.566C69.399 5.61633 127.592 5.6867 132.785 5.56614C137.901 5.44734 142.345 3.82991 143.897 3.05291L144.003 3ZM177.503 14.5125L175.886 13.4975L20.7685 34.5626L21.1038 35.9988L177.503 14.5125ZM21.3322 36.9768L21.3992 37.2637H27.5179H27.951L28.0128 37.6923L28.9999 44.542L73.0917 44.774L75.5061 37.1545C75.6749 36.622 76.144 36.2071 76.7314 36.2071H78.4649L78.464 36.2542L77.8398 37.0089V37.2071H76.7314C76.6479 37.2071 76.5182 37.271 76.4594 37.4566L74.1389 44.7795L91.657 44.8717L90.5928 41.5133L90.6597 41.4928L90.6207 40.7825L90.2149 40.3208L89.3073 37.4566C89.2485 37.271 89.1188 37.2071 89.0353 37.2071H88.3579V37.0089L87.7337 36.2542C87.7334 36.2388 87.7331 36.2231 87.7328 36.2071H89.0353C89.6227 36.2071 90.0919 36.622 90.2606 37.1545L92.7078 44.8772L120.295 45.0223L122.693 37.4564C122.861 36.9238 123.331 36.509 123.918 36.509H125.21L124.797 37.0089V37.509H123.918C123.834 37.509 123.705 37.5728 123.646 37.7584L122.774 40.5088L122.534 40.7825L122.502 41.3695L121.342 45.0278L138.827 45.1198L137.604 41.2614L137.578 40.7825L137.381 40.5592L136.494 37.7584C136.435 37.5728 136.305 37.509 136.222 37.509H135.315V37.0089L134.901 36.509H136.222C136.809 36.509 137.278 36.9238 137.447 37.4564L139.877 45.1254L165.997 45.2628L180.343 36.1343L180.449 36.0674L180.573 36.0577L230.234 32.1693V19.7931L195.024 15.619L194.878 15.6017L194.765 15.5086L191.967 13.2074H185.516V14.8206V15.3206H185.016H178.968L21.3322 36.9768ZM86.9543 36.2071H79.2434L79.2443 36.2542L79.8685 37.0089V37.2071H86.3292V37.0089L86.9534 36.2542C86.9537 36.2388 86.954 36.2231 86.9543 36.2071ZM133.286 37.0089V37.509H126.825V37.0089L126.412 36.509H133.7L133.286 37.0089ZM20.5401 33.5844L174.564 12.6679L164.352 6.25807L19 26.4257V26.9892L20.5401 33.5844ZM19 25.4161L163.035 5.43126L160.787 4.02029L19 23.7087V25.4161ZM19 22.6991L153.662 4H144.237C142.49 4.84849 137.983 6.4457 132.808 6.56587C128.86 6.65752 94.4732 6.63923 65.6692 6.6031L63.207 14.3732C63.0383 14.9057 62.5691 15.3206 61.9817 15.3206H49.6779C49.0905 15.3206 48.6213 14.9057 48.4525 14.3732L45.9813 6.5746L41.0923 6.56627L38.0843 8.59592V16.1791V16.6339L37.6316 16.6768L19 18.4451V22.6991ZM47.0308 6.57632L49.4058 14.0711C49.4646 14.2568 49.5943 14.3206 49.6779 14.3206H61.9817C62.0652 14.3206 62.1949 14.2568 62.2537 14.0711L64.6206 6.60177C58.3423 6.59377 52.3528 6.58496 47.0308 6.57632Z" fill="#328FA6"/>
</svg>
