<svg width="150" height="50" viewBox="0 0 150 50" fill="none" xmlns="http://www.w3.org/2000/svg">
<path d="M80.2205 33.4375L81.2441 25L80.2205 16.5625H78.378L77.3543 25L78.378 33.4375H80.2205Z" stroke="#328FA6"/>
<path d="M113.101 22.0117C112.512 20.5853 111.65 19.375 110.929 19.375C108.472 19.375 105.606 22.5391 105.606 25C105.606 27.4609 108.472 30.625 110.929 30.625C111.65 30.625 112.512 29.4147 113.101 27.9883M113.101 22.0117L120.449 22.3633V22.8906L113.57 23.418M113.101 22.0117C113.29 22.4692 113.45 22.9489 113.57 23.418M113.57 23.418C113.712 23.9791 113.795 24.5252 113.795 25C113.795 25.8717 113.516 26.9836 113.101 27.9883M113.101 27.9883L120.449 27.6367V26.9336L113.57 26.4063" stroke="#328FA6"/>
<path d="M40.3797 22.0117C40.9688 20.5853 41.8305 19.375 42.5512 19.375C45.0079 19.375 47.874 22.5391 47.874 25C47.874 27.4609 45.0079 30.625 42.5512 30.625C41.8305 30.625 40.9688 29.4147 40.3797 27.9883M40.3797 22.0117L33.0315 22.3633V22.8906L39.9106 23.418M40.3797 22.0117C40.1908 22.4692 40.0299 22.9489 39.9106 23.418M39.9106 23.418C39.768 23.9791 39.685 24.5252 39.685 25C39.685 25.8717 39.9648 26.9836 40.3797 27.9883M40.3797 27.9883L33.0315 27.6367V26.9336L39.9106 26.4063" stroke="#328FA6"/>
<path d="M95.2559 25C95.2559 25.6556 95.4117 26.2248 95.6377 26.6128C95.8709 27.0133 96.1194 27.1367 96.2913 27.1367C96.4633 27.1367 96.7118 27.0133 96.945 26.6128C97.171 26.2248 97.3268 25.6556 97.3268 25C97.3268 24.3444 97.171 23.7752 96.945 23.3872C96.7118 22.9867 96.4633 22.8633 96.2913 22.8633C96.1194 22.8633 95.8709 22.9867 95.6377 23.3872C95.4117 23.7752 95.2559 24.3444 95.2559 25Z" stroke="#328FA6"/>
<path d="M91.1614 25C91.1614 25.6556 91.3172 26.2248 91.5432 26.6128C91.7764 27.0133 92.0249 27.1367 92.1969 27.1367C92.3688 27.1367 92.6173 27.0133 92.8505 26.6128C93.0765 26.2248 93.2323 25.6556 93.2323 25C93.2323 24.3444 93.0765 23.7752 92.8505 23.3872C92.6173 22.9867 92.3688 22.8633 92.1969 22.8633C92.0249 22.8633 91.7764 22.9867 91.5432 23.3872C91.3172 23.7752 91.1614 24.3444 91.1614 25Z" stroke="#328FA6"/>
<path d="M72.9409 25C72.9409 25.6556 73.0968 26.2248 73.3227 26.6128C73.556 27.0133 73.8045 27.1367 73.9764 27.1367C74.1483 27.1367 74.3968 27.0133 74.63 26.6128C74.856 26.2248 75.0118 25.6556 75.0118 25C75.0118 24.3444 74.856 23.7752 74.63 23.3872C74.3968 22.9867 74.1483 22.8633 73.9764 22.8633C73.8045 22.8633 73.556 22.9867 73.3227 23.3872C73.0968 23.7752 72.9409 24.3444 72.9409 25Z" stroke="#328FA6"/>
<path d="M101 13.75H102.433C116.924 13.75 131.771 20.256 138.62 24.1787C139.263 24.5472 139.263 25.4528 138.62 25.8213C131.771 29.744 116.924 36.25 102.433 36.25H101M101 13.75L102.133 14.8623C102.325 15.0503 102.433 15.3075 102.433 15.576V34.424C102.433 34.6925 102.325 34.9497 102.133 35.1377L101 36.25M101 13.75H54.3228M101 36.25H54.3228M53.6063 13.75H45.3415C45.3238 13.75 45.3256 13.7494 45.3079 13.7504C44.7402 13.7811 10 15.7016 10 25C10 34.2984 44.7402 36.2189 45.3079 36.2496C45.3256 36.2506 45.3238 36.25 45.3415 36.25H53.6063M53.6063 13.75L50.0115 17.3239C49.8227 17.5116 49.7165 17.7669 49.7165 18.0331V31.9669C49.7165 32.2331 49.8227 32.4884 50.0115 32.6761L53.6063 36.25M53.6063 13.75H54.3228M53.6063 36.25H54.3228M54.3228 13.75L51.7455 17.3563C51.6242 17.526 51.5591 17.7293 51.5591 17.9378V32.0622C51.5591 32.2707 51.6242 32.474 51.7455 32.6437L54.3228 36.25M95.9684 16.6436L98.8591 17.8846C99.2264 18.0423 99.4646 18.4037 99.4646 18.8035V31.3723C99.4646 31.7721 99.2264 32.1335 98.8591 32.2912L95.9684 33.5322C95.8438 33.5857 95.7096 33.6133 95.5739 33.6133H83.6772C83.1249 33.6133 82.6772 33.1656 82.6772 32.6133V17.5625C82.6772 17.0102 83.1249 16.5625 83.6772 16.5625H95.5739C95.7096 16.5625 95.8438 16.5901 95.9684 16.6436Z" stroke="#328FA6" stroke-linejoin="round"/>
<path d="M75.126 21.2812H69.7559C69.4798 21.2812 69.2559 21.5051 69.2559 21.7812V28.5703C69.2559 28.8465 69.4798 29.0703 69.7559 29.0703H75.126C75.4021 29.0703 75.626 28.8465 75.626 28.5703V21.7812C75.626 21.5051 75.4021 21.2812 75.126 21.2812Z" stroke="#328FA6" stroke-linejoin="round"/>
<rect x="-0.5" y="0.5" width="7.80315" height="7.78906" rx="0.5" transform="matrix(-1 0 0 1 61.8189 18.6719)" stroke="#328FA6"/>
<path d="M62.3189 27.6094H57.9961V30.3281C57.9961 30.6043 58.2199 30.8281 58.4961 30.8281H61.8189C62.0951 30.8281 62.3189 30.6043 62.3189 30.3281V27.6094Z" stroke="#328FA6"/>
</svg>
