<svg width="100" height="50" viewBox="0 0 100 50" fill="none" xmlns="http://www.w3.org/2000/svg">
<path d="M56.5509 24.9962L57.0506 25.012L57.0511 24.9962L57.0506 24.9805L56.5509 24.9962ZM41.0323 33.0795L40.6273 33.3727C40.7213 33.5026 40.8719 33.5795 41.0323 33.5795V33.0795ZM58.0773 24.9962L58.5771 25.012L58.5775 24.9962L58.5771 24.9805L58.0773 24.9962ZM41.0323 16.913V16.413C40.8719 16.413 40.7213 16.4899 40.6273 16.6198L41.0323 16.913ZM55.6605 36.2425L55.6699 35.7426L55.6605 36.2425ZM55.6605 13.7575L55.651 13.2576L55.6605 13.7575ZM57.6957 33.6067L57.3466 33.2487L56.4836 34.0903L57.6889 34.1066L57.6957 33.6067ZM57.6957 16.3859L57.6889 15.8859L56.4836 15.9022L57.3466 16.7439L57.6957 16.3859ZM69.1438 18.5549L69.6207 18.4045L69.5466 18.1698L69.3155 18.0853L69.1438 18.5549ZM69.1438 31.4377L69.3155 31.9073L69.5466 31.8228L69.6207 31.5881L69.1438 31.4377ZM56.0511 24.9805C56.0098 26.2947 55.7604 28.2575 55.1599 29.8742C54.5412 31.5404 53.6569 32.5795 52.4804 32.5795V33.5795C54.3568 33.5795 55.4654 31.9242 56.0974 30.2223C56.7478 28.471 57.0072 26.3922 57.0506 25.012L56.0511 24.9805ZM52.4804 32.5795H41.0323V33.5795H52.4804V32.5795ZM41.4373 32.7863C41.4563 32.8125 41.4456 32.8071 41.418 32.7249C41.3938 32.6533 41.3644 32.5467 41.3321 32.3976C41.2677 32.0999 41.1972 31.6582 41.1321 31.0373C41.002 29.7966 40.8963 27.8675 40.8963 24.9962H39.8963C39.8963 27.8887 40.0026 29.8548 40.1375 31.1416C40.2049 31.7844 40.2801 32.2645 40.3548 32.6093C40.3921 32.7814 40.4306 32.9262 40.4702 33.044C40.5063 33.1512 40.5553 33.2733 40.6273 33.3727L41.4373 32.7863ZM57.5775 24.9805C57.5341 26.3617 57.5303 28.2772 56.8831 29.8589C56.5652 30.6359 56.1005 31.3067 55.4171 31.786C54.7357 32.2639 53.7967 32.5795 52.4804 32.5795V33.5795C53.9626 33.5795 55.1119 33.2215 55.9913 32.6047C56.8687 31.9894 57.4376 31.1446 57.8087 30.2376C58.5395 28.4514 58.5357 26.3252 58.5771 25.012L57.5775 24.9805ZM57.0506 24.9805C57.0072 23.6003 56.7478 21.5215 56.0974 19.7701C55.4654 18.0683 54.3568 16.413 52.4804 16.413V17.413C53.6569 17.413 54.5412 18.4521 55.1599 20.1183C55.7604 21.735 56.0098 23.6978 56.0511 25.012L57.0506 24.9805ZM52.4804 16.413H41.0323V17.413H52.4804V16.413ZM40.6273 16.6198C40.5553 16.7192 40.5063 16.8413 40.4702 16.9485C40.4306 17.0663 40.3921 17.2111 40.3548 17.3832C40.2801 17.728 40.2049 18.2081 40.1375 18.8509C40.0026 20.1377 39.8963 22.1038 39.8963 24.9962H40.8963C40.8963 22.125 41.002 20.1959 41.1321 18.9552C41.1972 18.3343 41.2677 17.8926 41.3321 17.5949C41.3644 17.4457 41.3938 17.3392 41.418 17.2676C41.4456 17.1854 41.4563 17.18 41.4373 17.2062L40.6273 16.6198ZM58.5771 24.9805C58.5357 23.6673 58.5395 21.5411 57.8087 19.7549C57.4376 18.8479 56.8687 18.0031 55.9913 17.3877C55.1119 16.771 53.9626 16.413 52.4804 16.413V17.413C53.7967 17.413 54.7357 17.7286 55.4171 18.2065C56.1005 18.6857 56.5652 19.3565 56.8831 20.1336C57.5303 21.7153 57.5341 23.6307 57.5775 25.012L58.5771 24.9805ZM82.0929 24.7059C82.0927 24.7062 82.0925 24.7065 82.0919 24.7073C82.0915 24.7079 82.0908 24.7089 82.0901 24.7099L82.9045 25.2901C82.9068 25.2869 82.9036 25.2914 82.9071 25.2865L82.0929 24.7059ZM82.0903 24.7096C79.4193 28.4528 70.345 36.0203 55.6699 35.7426L55.651 36.7424C70.6805 37.0268 80.0566 29.2814 82.9043 25.2904L82.0903 24.7096ZM55.6699 35.7426C46.3875 35.5669 37.7158 35.2596 31.1775 34.7992C27.9069 34.5689 25.18 34.301 23.1808 33.9938C22.18 33.84 21.3739 33.6783 20.778 33.5102C20.48 33.4261 20.2447 33.3432 20.0685 33.2636C19.8851 33.1807 19.799 33.116 19.7678 33.0837L19.0483 33.7781C19.2079 33.9435 19.4268 34.071 19.6568 34.1749C19.894 34.2821 20.1805 34.3806 20.5065 34.4726C21.1588 34.6566 22.0103 34.8257 23.0289 34.9822C25.0683 35.2955 27.827 35.5657 31.1072 35.7967C37.6707 36.2589 46.362 36.5666 55.651 36.7424L55.6699 35.7426ZM19.7678 33.0837C19.4556 32.7602 19.1752 32.2524 18.9356 31.5962C18.6985 30.9465 18.514 30.1868 18.374 29.3923C18.094 27.8028 18 26.1204 18 25H17C17 26.164 17.0968 27.9063 17.3892 29.5658C17.5354 30.3957 17.7325 31.2166 17.9962 31.9391C18.2576 32.6549 18.5972 33.3108 19.0483 33.7781L19.7678 33.0837ZM82.9071 24.7135C82.904 24.7092 82.9065 24.7126 82.9045 24.7099L82.0901 25.2901C82.0908 25.2911 82.0915 25.2921 82.0919 25.2927C82.0924 25.2934 82.0927 25.2937 82.0929 25.2941L82.9071 24.7135ZM82.9043 24.7096C80.0566 20.7186 70.6805 12.9732 55.651 13.2576L55.6699 14.2574C70.345 13.9797 79.4193 21.5472 82.0903 25.2904L82.9043 24.7096ZM55.651 13.2576C46.362 13.4334 37.6707 13.7411 31.1072 14.2033C27.827 14.4343 25.0683 14.7045 23.0289 15.0178C22.0103 15.1743 21.1588 15.3434 20.5065 15.5274C20.1805 15.6194 19.894 15.7179 19.6568 15.8251C19.4268 15.929 19.2079 16.0565 19.0483 16.2219L19.7678 16.9163C19.799 16.884 19.8851 16.8193 20.0685 16.7364C20.2447 16.6568 20.48 16.5739 20.778 16.4898C21.3739 16.3217 22.18 16.16 23.1808 16.0062C25.18 15.699 27.9069 15.4311 31.1775 15.2008C37.7158 14.7404 46.3875 14.4331 55.6699 14.2574L55.651 13.2576ZM19.0483 16.2219C18.5972 16.6892 18.2576 17.3451 17.9962 18.0609C17.7325 18.7834 17.5354 19.6043 17.3892 20.4342C17.0968 22.0937 17 23.836 17 25H18C18 23.8796 18.094 22.1972 18.374 20.6077C18.514 19.8132 18.6985 19.0535 18.9356 18.4038C19.1752 17.7476 19.4556 17.2398 19.7678 16.9163L19.0483 16.2219ZM59.3581 24.9963C59.3581 28.191 58.827 30.2791 58.3132 31.5526C58.0562 32.1897 57.8025 32.6252 57.6196 32.8952C57.5281 33.0303 57.454 33.1243 57.4058 33.1817C57.3817 33.2104 57.364 33.23 57.3538 33.2409C57.3487 33.2464 57.3455 33.2498 57.3442 33.251C57.3436 33.2517 57.3435 33.2518 57.3439 33.2514C57.3441 33.2512 57.3444 33.2509 57.3449 33.2504C57.3451 33.2502 57.3453 33.25 57.3456 33.2497C57.3458 33.2495 57.346 33.2493 57.3461 33.2492C57.3464 33.249 57.3466 33.2487 57.6957 33.6067C58.0448 33.9647 58.045 33.9644 58.0453 33.9641C58.0454 33.964 58.0457 33.9637 58.0459 33.9635C58.0464 33.9631 58.0468 33.9626 58.0473 33.9622C58.0483 33.9612 58.0494 33.9601 58.0506 33.9589C58.0531 33.9564 58.0561 33.9534 58.0596 33.9498C58.0665 33.9427 58.0754 33.9335 58.0861 33.9219C58.1076 33.8988 58.1364 33.8667 58.1714 33.8251C58.2414 33.7417 58.3363 33.6202 58.4475 33.456C58.6701 33.1275 58.957 32.6295 59.2406 31.9267C59.808 30.5204 60.3581 28.3033 60.3581 24.9963H59.3581ZM60.3581 24.9963C60.3581 21.6893 59.808 19.4722 59.2406 18.0658C58.957 17.3631 58.6701 16.8651 58.4475 16.5365C58.3363 16.3724 58.2414 16.2508 58.1714 16.1675C58.1364 16.1258 58.1076 16.0937 58.0861 16.0707C58.0754 16.0591 58.0665 16.0498 58.0596 16.0427C58.0561 16.0392 58.0531 16.0362 58.0506 16.0337C58.0494 16.0325 58.0483 16.0314 58.0473 16.0304C58.0468 16.0299 58.0464 16.0295 58.0459 16.0291C58.0457 16.0288 58.0454 16.0286 58.0453 16.0285C58.045 16.0282 58.0448 16.0279 57.6957 16.3859C57.3466 16.7439 57.3464 16.7436 57.3461 16.7433C57.346 16.7433 57.3458 16.743 57.3456 16.7429C57.3453 16.7426 57.3451 16.7424 57.3449 16.7421C57.3444 16.7417 57.3441 16.7414 57.3439 16.7412C57.3435 16.7408 57.3436 16.7409 57.3442 16.7415C57.3455 16.7428 57.3487 16.7461 57.3538 16.7516C57.364 16.7626 57.3817 16.7822 57.4058 16.8109C57.454 16.8682 57.5281 16.9622 57.6196 17.0974C57.8025 17.3674 58.0562 17.8029 58.3132 18.44C58.827 19.7135 59.3581 21.8015 59.3581 24.9963H60.3581ZM57.7025 16.8858C60.0744 16.8537 64.385 17.3479 68.9722 19.0245L69.3155 18.0853C64.6127 16.3665 60.1812 15.8522 57.6889 15.8859L57.7025 16.8858ZM57.6889 34.1066C60.1812 34.1404 64.6127 33.6261 69.3155 31.9073L68.9722 30.9681C64.385 32.6446 60.0744 33.1389 57.7025 33.1067L57.6889 34.1066ZM69.1438 18.5549C68.667 18.7053 68.667 18.7052 68.667 18.7052C68.667 18.7052 68.667 18.7052 68.667 18.7052C68.667 18.7053 68.667 18.7054 68.6671 18.7055C68.6672 18.7058 68.6673 18.7064 68.6676 18.7071C68.668 18.7086 68.6687 18.7109 68.6697 18.7141C68.6717 18.7205 68.6748 18.7302 68.6788 18.7433C68.6868 18.7694 68.6987 18.8085 68.714 18.8595C68.7445 18.9617 68.7884 19.1115 68.8411 19.3005C68.9468 19.6786 69.0877 20.2122 69.2287 20.8321C69.5123 22.0794 69.7886 23.6467 69.7886 24.9962L70.7886 24.9962C70.7886 23.5342 70.4926 21.8808 70.2038 20.6104C70.0585 19.9714 69.9133 19.4218 69.8043 19.0315C69.7497 18.8362 69.7042 18.6805 69.6721 18.5732C69.656 18.5195 69.6434 18.4779 69.6346 18.4494C69.6302 18.4352 69.6268 18.4242 69.6245 18.4167C69.6233 18.4129 69.6224 18.41 69.6218 18.408C69.6215 18.407 69.6212 18.4062 69.621 18.4056C69.6209 18.4053 69.6209 18.405 69.6208 18.4049C69.6208 18.4048 69.6207 18.4047 69.6207 18.4046C69.6207 18.4046 69.6207 18.4045 69.1438 18.5549ZM69.7886 24.9962C69.7886 26.3458 69.5123 27.9131 69.2287 29.1605C69.0877 29.7804 68.9468 30.3139 68.8411 30.6921C68.7884 30.881 68.7445 31.0309 68.714 31.133C68.6987 31.1841 68.6868 31.2232 68.6788 31.2493C68.6748 31.2623 68.6717 31.2721 68.6697 31.2785C68.6687 31.2817 68.668 31.284 68.6676 31.2855C68.6673 31.2862 68.6672 31.2867 68.6671 31.287C68.667 31.2872 68.667 31.2873 68.667 31.2873C68.667 31.2873 68.667 31.2873 68.667 31.2873C68.667 31.2873 68.667 31.2873 69.1438 31.4377C69.6207 31.5881 69.6207 31.588 69.6207 31.5879C69.6207 31.5879 69.6208 31.5878 69.6208 31.5877C69.6209 31.5875 69.6209 31.5873 69.621 31.587C69.6212 31.5864 69.6215 31.5856 69.6218 31.5846C69.6224 31.5826 69.6233 31.5796 69.6245 31.5759C69.6268 31.5683 69.6302 31.5574 69.6346 31.5432C69.6434 31.5147 69.656 31.4731 69.6721 31.4194C69.7042 31.312 69.7497 31.1564 69.8043 30.9611C69.9133 30.5708 70.0585 30.0211 70.2038 29.3821C70.4926 28.1117 70.7886 26.4582 70.7886 24.9962L69.7886 24.9962Z" fill="#007389"/>
<rect x="20.0352" y="21.9818" width="1.54403" height="6.0289" rx="0.772016" stroke="#007389"/>
</svg>
