<svg width="150" height="50" viewBox="0 0 150 50" fill="none" xmlns="http://www.w3.org/2000/svg">
<path d="M20.4097 10.0003V9.50029H19.9097V10.0003H20.4097ZM25.1304 10.0003L25.6215 9.90678L25.5441 9.50029H25.1304V10.0003ZM26.2601 15.934L25.7689 16.0275L25.7689 16.0275L26.2601 15.934ZM30.2142 15.934L30.6977 15.8068L30.5996 15.434H30.2142V15.934ZM20.4097 40H19.9097V40.5H20.4097V40ZM25.1304 40V40.5H25.5441L25.6215 40.0935L25.1304 40ZM30.2142 34.0663V34.5663H30.5996L30.6977 34.1935L30.2142 34.0663ZM50.7914 24.9113L50.4046 24.5945C50.2537 24.7788 50.2537 25.0439 50.4046 25.2281L50.7914 24.9113ZM59.5065 24.9113L59.2643 24.4739C59.1052 24.562 59.0065 24.7295 59.0065 24.9113C59.0065 25.0932 59.1052 25.2607 59.2643 25.3488L59.5065 24.9113ZM10 24.9191L9.87728 24.4344C9.65949 24.4896 9.50522 24.6832 9.50013 24.9078C9.49504 25.1324 9.64038 25.3328 9.85545 25.3978L10 24.9191ZM120.512 10V9.5H120.012V10H120.512ZM123.78 10H124.28V9.5H123.78V10ZM120.633 39.6687H120.133V40.1687H120.633V39.6687ZM123.901 39.6687V40.1687H124.401V39.6687H123.901ZM17.1415 19.6635H17.6415V19.1056L17.0869 19.1665L17.1415 19.6635ZM17.1415 30.1747L17.0869 30.6717L17.6415 30.7327V30.1747H17.1415ZM20.9097 22.0794V10.0003H19.9097V22.0794H20.9097ZM20.4097 10.5003H25.1304V9.50029H20.4097V10.5003ZM24.6392 10.0938L25.7689 16.0275L26.7513 15.8405L25.6215 9.90678L24.6392 10.0938ZM25.7689 16.0275L26.5759 20.2659L27.5582 20.0789L26.7513 15.8405L25.7689 16.0275ZM26.2601 16.434H30.2142V15.434H26.2601V16.434ZM29.7306 16.0612L30.5779 19.2824L31.545 19.028L30.6977 15.8068L29.7306 16.0612ZM19.9097 27.963V40H20.9097V27.963H19.9097ZM20.4097 40.5H25.1304V39.5H20.4097V40.5ZM25.6215 40.0935L26.7513 34.1598L25.7689 33.9727L24.6392 39.9065L25.6215 40.0935ZM26.7514 34.1591L27.5584 29.8868L26.5757 29.7012L25.7688 33.9735L26.7514 34.1591ZM26.2601 34.5663H30.2142V33.5663H26.2601V34.5663ZM30.6977 34.1935L31.545 30.9723L30.5779 30.7179L29.7306 33.9391L30.6977 34.1935ZM50.4046 25.2281C52.051 27.2385 57.1462 31.3451 64.5903 31.3451V30.3451C57.5093 30.3451 52.679 26.427 51.1783 24.5945L50.4046 25.2281ZM64.5903 31.3451H83.8361V30.3451H64.5903V31.3451ZM83.8361 31.3451C85.4813 31.3451 86.6751 30.2394 87.4292 28.9584C88.1857 27.6735 88.5726 26.1025 88.5726 24.9113H87.5726C87.5726 25.9242 87.2333 27.32 86.5675 28.451C85.8994 29.5859 84.9749 30.3451 83.8361 30.3451V31.3451ZM51.1783 25.2281C52.6647 23.4131 57.4896 19.8167 64.5903 19.8167V18.8167C57.1659 18.8167 52.0653 22.5668 50.4046 24.5945L51.1783 25.2281ZM64.5903 19.8167H83.8361V18.8167H64.5903V19.8167ZM83.8361 19.8167C84.9968 19.8167 85.919 20.5174 86.5759 21.555C87.2351 22.5961 87.5726 23.9016 87.5726 24.9113H88.5726C88.5726 23.7171 88.1839 22.2253 87.4208 21.0201C86.6555 19.8113 85.4594 18.8167 83.8361 18.8167V19.8167ZM59.2643 25.3488C61.094 26.3619 66.8568 28.2935 75.7263 28.2935V27.2935C66.9719 27.2935 61.3889 25.3822 59.7487 24.4739L59.2643 25.3488ZM75.7263 28.2935H80.689V27.2935H75.7263V28.2935ZM80.689 28.2935C82.2182 28.2935 83.4469 27.6874 84.2902 26.9926C84.7114 26.6456 85.0437 26.2708 85.2747 25.9261C85.3901 25.7539 85.4844 25.5829 85.5514 25.421C85.6154 25.2662 85.6676 25.0885 85.6676 24.9113H84.6676C84.6676 24.9038 84.6668 24.9433 84.6273 25.0388C84.5907 25.1272 84.5309 25.2397 84.444 25.3694C84.2702 25.6287 84.0049 25.932 83.6544 26.2208C82.9544 26.7975 81.9438 27.2935 80.689 27.2935V28.2935ZM59.7487 25.3488C61.3889 24.4405 66.9719 22.5292 75.7263 22.5292V21.5292C66.8568 21.5292 61.094 23.4608 59.2643 24.4739L59.7487 25.3488ZM75.7263 22.5292H80.689V21.5292H75.7263V22.5292ZM80.689 22.5292C81.9438 22.5292 82.9544 23.0252 83.6544 23.6019C84.0049 23.8907 84.2702 24.194 84.444 24.4533C84.5309 24.583 84.5907 24.6955 84.6273 24.7839C84.6668 24.8794 84.6676 24.9189 84.6676 24.9113H85.6676C85.6676 24.7342 85.6154 24.5565 85.5514 24.4017C85.4844 24.2398 85.3901 24.0688 85.2747 23.8966C85.0437 23.5519 84.7114 23.1771 84.2902 22.8301C83.4469 22.1353 82.2182 21.5292 80.689 21.5292V22.5292ZM52.1229 35.2522H118.818V34.2522H52.1229V35.2522ZM118.818 35.2522C121.531 35.2522 126.88 34.6088 131.564 33.0436C133.906 32.2613 136.117 31.2369 137.753 29.9205C139.392 28.6011 140.5 26.946 140.5 24.9191H139.5C139.5 26.5373 138.626 27.9338 137.126 29.1415C135.621 30.3523 133.536 31.3306 131.248 32.0952C126.672 33.6241 121.43 34.2522 118.818 34.2522V35.2522ZM52.1229 15.5861H118.818V14.5861H52.1229V15.5861ZM118.818 15.5861C121.43 15.5861 126.672 16.2142 131.248 17.7431C133.536 18.5077 135.621 19.486 137.126 20.6967C138.626 21.9045 139.5 23.301 139.5 24.9191H140.5C140.5 22.8923 139.392 21.2371 137.753 19.9178C136.117 18.6014 133.906 17.577 131.564 16.7946C126.88 15.2295 121.531 14.5861 118.818 14.5861V15.5861ZM121.012 15.0861V10H120.012V15.0861H121.012ZM120.512 10.5H123.78V9.5H120.512V10.5ZM123.28 10V15.4251H124.28V10H123.28ZM120.133 34.5826V39.6687H121.133V34.5826H120.133ZM120.633 40.1687H123.901V39.1687H120.633V40.1687ZM124.401 39.6687V34.2436H123.401V39.6687H124.401ZM17.0869 19.1665C16.0435 19.2811 14.4731 19.5221 13.1538 19.8757C12.4981 20.0514 11.8759 20.2624 11.4074 20.5134C11.1739 20.6385 10.9531 20.7868 10.7848 20.9659C10.6149 21.1467 10.4683 21.3931 10.4683 21.6979H11.4683C11.4683 21.7315 11.4504 21.7179 11.5136 21.6506C11.5784 21.5816 11.6952 21.4937 11.8797 21.3948C12.2471 21.198 12.7824 21.0105 13.4127 20.8416C14.6657 20.5057 16.1818 20.272 17.1961 20.1605L17.0869 19.1665ZM17.1961 29.6777C16.1818 29.5663 14.6657 29.3325 13.4127 28.9967C12.7824 28.8277 12.2471 28.6403 11.8797 28.4434C11.6952 28.3446 11.5784 28.2566 11.5136 28.1876C11.4504 28.1203 11.4683 28.1067 11.4683 28.1403H10.4683C10.4683 28.4451 10.6149 28.6915 10.7848 28.8723C10.9531 29.0514 11.1739 29.1998 11.4074 29.3249C11.8759 29.5758 12.4981 29.7868 13.1538 29.9626C14.4731 30.3162 16.0435 30.5571 17.0869 30.6717L17.1961 29.6777ZM17.2752 23.4677C22.8702 21.9158 29.0248 19.9543 35.1152 18.3633C41.1917 16.7759 47.1061 15.5861 52.1229 15.5861V14.5861C46.9721 14.5861 40.9551 15.8042 34.8625 17.3957C28.7837 18.9837 22.5314 20.972 17.0079 22.5041L17.2752 23.4677ZM16.6415 19.6635V22.9859H17.6415V19.6635H16.6415ZM17.0028 27.5096C22.8442 29.1971 29.0672 31.1336 35.0891 32.6443C41.1114 34.1551 46.9767 35.2522 52.1229 35.2522V34.2522C47.1015 34.2522 41.3314 33.1793 35.3325 31.6744C29.3333 30.1694 23.1493 28.2444 17.2803 26.5489L17.0028 27.5096ZM17.6415 27.0293V22.9859H16.6415V27.0293H17.6415ZM16.6415 27.0293V30.1747H17.6415V27.0293H16.6415ZM10.1227 25.4038C10.4277 25.3266 10.7523 25.2428 11.095 25.153L10.8416 24.1857C10.501 24.2749 10.1791 24.358 9.87728 24.4344L10.1227 25.4038ZM10.4683 21.6979V24.6694H11.4683V21.6979H10.4683ZM9.85545 25.3978C10.1688 25.4924 10.492 25.5898 10.8246 25.6896L11.1121 24.7318C10.7801 24.6321 10.4573 24.535 10.1445 24.4405L9.85545 25.3978ZM10.4683 25.2107V28.1403H11.4683V25.2107H10.4683ZM10.4683 24.6694V25.2107H11.4683V24.6694H10.4683Z" fill="#328FA6"/>
</svg>
